# xmcd
#
# Track frame offsets: 
#        150
#        27153
#        48122
#        66363
#        82541
#        126392
#        143601
#        167688
#        196958
#        218270
#        238663
#
# Disc length: 3613 seconds
#
# Revision: 1
# Processed by: cddbd v1.5.2PL0 Copyright (c) Steve Scherf et al.
# Submitted via: ExactAudioCopyFreeDBPlugin 1.0
#
DISCID=870e1b0b
DTITLE=Anat Cohen - Luminosa
DYEAR=2015
DGENRE=Jazz
TTITLE0=Lilia
TTITLE1=Putty Boy Strut
TTITLE2=Ima
TTITLE3=Bachiao
TTITLE4=Cais
TTITLE5=Happy Song
TTITLE6=In the spirit of Baden
TTITLE7=Tennura
TTITLE8=Espinha deBacalhua
TTITLE9=Beatriz
TTITLE10=The Wein Machine
EXTD=YEAR: 2015
EXTT0=
EXTT1=
EXTT2=
EXTT3=
EXTT4=
EXTT5=
EXTT6=
EXTT7=
EXTT8=
EXTT9=
EXTT10=
PLAYORDER=
